# AST/ASF file generated using VICON BodyLanguage
# -----------------------------------------------
:version 1.10
:name VICON
:units
  mass 1.0
  length 0.45
  angle deg
:documentation
   .ast/.asf automatically generated from VICON data using
   VICON BodyBuilder and BodyLanguage model FoxedUp or BRILLIANT.MOD
:root
   order TX TY TZ RX RY RZ
   axis XYZ
   position 0 0 0  
   orientation 0 0 0 
:bonedata
  begin
     id 1 
     name lhipjoint
     direction 0.646657 -0.683706 0.338203 
     length 2.4948 
     axis 0 0 0  XYZ
  end
  begin
     id 2 
     name lfemur
     direction 0.34202 -0.939693 0  
     length 6.79491  
     axis 0 0 20  XYZ
    dof rx ry rz
    limits (-160.0 20.0)
           (-70.0 70.0)
           (-60.0 70.0)
  end
  begin
     id 3 
     name ltibia
     direction 0.34202 -0.939693 0   
     length 7.56807   
     axis 0 0 20   XYZ
    dof rx
    limits (-10.0 170.0)
  end
  begin
     id 4 
     name lfoot
     direction 0.0679796 -0.186772 0.980048   
     length 2.53018   
     axis -90 7.62852e-016 20   XYZ
    dof rx rz
    limits (-45.0 90.0)
           (-70.0 20.0)
  end
  begin
     id 5 
     name ltoes
     direction 1.53625e-011 -4.21881e-011 1   
     length 1.26912   
     axis -90 7.62852e-016 20   XYZ
    dof rx
    limits (-90.0 20.0)
  end
  begin
     id 6 
     name rhipjoint
     direction -0.618868 -0.704065 0.348274   
     length 2.42265  
     axis 0 0 0  XYZ 
  end
  begin
     id 7 
     name rfemur
     direction -0.34202 -0.939693 0   
     length 6.73814   
     axis 0 0 -20   XYZ
    dof rx ry rz
    limits (-160.0 20.0)
           (-70.0 70.0)
           (-70.0 60.0)
  end
  begin
     id 8 
     name rtibia
     direction -0.34202 -0.939693 0   
     length 7.66799   
     axis 0 0 -20   XYZ
    dof rx
    limits (-10.0 170.0)
 end
 begin
     id 9 
     name rfoot
     direction -0.0727352 -0.199838 0.977125   
     length 2.57224  
     axis -90 -7.62852e-016 -20   XYZ
    dof rx rz
    limits (-45.0 90.0)
           (-20.0 70.0)
  end
  begin
     id 10 
     name rtoes
     direction -1.53501e-011 -4.21858e-011 1   
     length 1.28858   
     axis -90 -7.62852e-016 -20   XYZ
    dof rx
    limits (-90.0 20.0)
  end
  begin
     id 11 
     name lowerback
     direction -0.0172471 0.995767 -0.0902851   
     length 2.20206   
     axis 0 0 0   XYZ
    dof rx ry rz
    limits (-20.0 45.0)
           (-30.0 30.0)
           (-30.0 30.0)
  end
  begin
     id 12 
     name upperback
     direction -0.000110737 0.999714 0.0239043   
     length 2.19523   
     axis 0 0 0   XYZ
    dof rx ry rz
    limits (-20.0 45.0)
           (-30.0 30.0)
           (-30.0 30.0)
  end
  begin
     id 13 
     name thorax
     direction 0.00704869 0.997783 0.0661741   
     length 2.21977   
     axis 0 0 0   XYZ
    dof rx ry rz
    limits (-20.0 45.0)
           (-30.0 30.0)
           (-30.0 30.0)
  end
  begin
     id 14 
     name lowerneck
     direction -0.00407501 0.995527 0.0943846   
     length 1.83142   
     axis 0 0 0   XYZ
    dof rx ry rz
    limits (-20.0 45.0)
           (-30.0 30.0)
           (-30.0 30.0)
  end
  begin
     id 15 
     name upperneck
     direction 0.0640586 0.986486 -0.150807   
     length 1.84616   
     axis 0 0 0   XYZ
    dof rx ry rz
    limits (-20.0 45.0)
           (-30.0 30.0)
           (-30.0 30.0)
  end
  begin
     id 16
     name head
     direction 0.0188017 0.99791 -0.0618239  
     length 1.85932  
     axis 0 0 0   XYZ
    dof rx ry rz
    limits (-20.0 45.0)
           (-30.0 30.0)
           (-30.0 30.0)
  end
  begin
     id 17 
     name lclavicle
     direction 0.976074 0.206905 0.066852  
     length 3.81043  
     axis 0 0 0   XYZ
    dof ry rz
    limits (-20.0 10.0)
           (0.0 20.0)
  end
  begin
     id 18 
     name lhumerus
     direction 1 -4.48971e-011 1.86916e-027   
     length 5.37587   
     axis 180 -30 -90   XYZ
    dof rx ry rz
    limits (-60.0 90.0)
           (-90.0 90.0)
           (-90.0 90.0)
  end
  begin
     id 19
     name lradius
     direction 1 -4.48968e-011 1.69187e-027   
     length 3.35977   
     axis 180 -30 -90   XYZ
    dof rx
    limits (-10.0 170.0)
  end
  begin
     id 20
     name lwrist
     direction 1 -4.48968e-011 5.8978e-027   
     length 1.67988   
     axis -3.27506e-015 90 90   XYZ
    dof ry
    limits (-180.0 0.0)
 end
  begin
     id 21 
     name lhand
     direction 1 -4.49028e-011 1.18071e-026   
     length 0.561859   
     axis -7.52654e-015 90 90   XYZ
    dof rx rz
    limits (-90.0 90.0)
           (-45.0 45.0)
  end
  begin
     id 22 
     name lfingers
     direction 1 -4.48927e-011 2.35758e-026   
     length 0.452985   
     axis -1.50534e-014 90 90   XYZ
    dof rx
    limits (0.0 90.0)
  end
  begin
     id 23
     name lthumb
     direction 0.707107 -6.34898e-011 0.707107   
     length 0.650399   
     axis -90 45 5.69224e-014   XYZ
    dof rx rz
    limits (-45.0 45.0)
           (-45.0 45.0)
  end
  begin
     id 24 
     name rclavicle
     direction -0.988403 0.151789 0.00439714   
     length 3.6942  
     axis 0 0 0   XYZ 
    dof ry rz
    limits (-10.0 20.0)
           (-20.0 0.0)
  end
  begin
     id 25 
     name rhumerus
     direction -1 -4.48978e-011 1.62495e-027  
     length 5.22819   
     axis 180 30 90   XYZ
    dof rx ry rz
    limits (-90.0 60.0)
           (-90.0 90.0)
           (-90.0 90.0)
  end
  begin
     id 26 
     name rradius
     direction -1 -4.48961e-011 3.47796e-027   
     length 3.40764   
     axis 180 30 90   XYZ
    dof rx
    limits (-10.0 170.0)
  end
  begin
     id 27 
     name rwrist
     direction -1 -4.48949e-011 5.89602e-027   
     length 1.70382   
     axis -3.27506e-015 -90 -90   XYZ
    dof ry
    limits (-180.0 0.0)
  end
  begin
     id 28
     name rhand
     direction -1 -4.48977e-011 1.17973e-026   
     length 0.583255   
     axis -7.52654e-015 -90 -90   XYZ
    dof rx rz
    limits (-90.0 90.0)
           (-45.0 45.0)
  end
  begin
     id 29
     name rfingers
     direction -1 -4.49099e-011 2.36408e-026   
     length 0.470235   
     axis -1.50534e-014 -90 -90   XYZ
    dof rx
    limits (0.0 90.0)
  end
  begin
     id 30
     name rthumb
     direction -0.707107 -6.35011e-011 0.707107   
     length 0.675167   
     axis -90 -45 -5.69224e-014   XYZ
    dof rx rz
    limits (-45.0 45.0)
           (-45.0 45.0)
  end
:hierarchy
  begin
    root lhipjoint rhipjoint lowerback
    lhipjoint lfemur
    lfemur ltibia
    ltibia lfoot
    lfoot ltoes
    rhipjoint rfemur
    rfemur rtibia
    rtibia rfoot
    rfoot rtoes
    lowerback upperback
    upperback thorax
    thorax lowerneck lclavicle rclavicle
    lowerneck upperneck
    upperneck head
    lclavicle lhumerus
    lhumerus lradius
    lradius lwrist
    lwrist lhand lthumb
    lhand lfingers
    rclavicle rhumerus
    rhumerus rradius
    rradius rwrist
    rwrist rhand rthumb
    rhand rfingers
  end

#!OML:ASF G:\JayActor3\Patient Classification 1\Patient 1\Session 2\male.ASF
:FULLY-SPECIFIED
:DEGREES
1
root 49.6673 16.8446 -8.45057 6.30118 -82.6237 -5.32308
lowerback -2.77997 -0.648123 -0.522707
upperback 4.92488 -0.935801 0.61013
thorax 6.69972 -0.533246 0.845616
lowerneck -11.2806 -3.67377 -4.52441
upperneck 12.5956 -5.60797 8.80483
head 6.04965 -2.32915 3.04447
rclavicle 2.46866e-014 -8.54774e-015
rhumerus -27.6989 -8.67156 -80.5816
rradius 27.2086
rwrist -0.681905
rhand -20.8892 5.44951
rfingers 7.12502
rthumb 5.48128 -24.4596
lclavicle 2.46866e-014 -8.54774e-015
lhumerus -25.7955 6.04576 85.0785
lradius 26.1532
lwrist 8.26793
lhand -18.7271 17.1997
lfingers 7.12502
lthumb 7.5686 47.0443
rfemur -9.92238 -0.964907 19.7879
rtibia 31.0058
rfoot -23.6825 -9.7652
rtoes 19.4871
lfemur -1.74627 1.35688 -16.2697
ltibia 14.9159
lfoot -10.4675 6.87869
ltoes -8.52282
2
root 49.6655 16.8446 -8.45025 6.68298 -82.648 -5.71008
lowerback -2.74959 -0.645293 -0.495333
upperback 4.91687 -0.934462 0.622625
thorax 6.67334 -0.531477 0.843821
lowerneck -11.2048 -3.67507 -4.59457
upperneck 12.538 -5.60826 8.8863
head 6.02283 -2.32998 3.08289
rclavicle -2.44132e-014 5.36719e-015
rhumerus -27.7153 -8.65812 -80.595
rradius 27.2252
rwrist -0.736056
rhand -20.8303 5.46915
rfingers 7.12502
rthumb 5.53816 -24.4385
lclavicle -2.44132e-014 5.36719e-015
lhumerus -25.8192 6.00075 85.0951
lradius 26.1624
lwrist 8.33606
lhand -18.7647 17.1237
lfingers 7.12502
lthumb 7.53231 46.9695
rfemur -9.91102 -0.882256 19.8485
rtibia 30.9871
rfoot -23.689 -9.8322
rtoes 19.4528
lfemur -1.74857 1.3751 -16.2155
ltibia 14.9501
lfoot -10.4982 6.86607
ltoes -8.4644
3
root 49.6633 16.8444 -8.4462 6.47516 -82.6698 -5.48079
lowerback -2.76316 -0.6417 -0.509071
upperback 4.91342 -0.927635 0.607317
thorax 6.67733 -0.528252 0.836015
lowerneck -11.2186 -3.66717 -4.54291
upperneck 12.5493 -5.59502 8.81362
head 6.02422 -2.32557 3.05222
rclavicle 6.49156e-015 4.62174e-015
rhumerus -27.751 -8.65359 -80.5952
rradius 27.2673
rwrist -0.845517
rhand -20.7414 5.4798
rfingers 7.12502
rthumb 5.62403 -24.4256
lclavicle 6.49156e-015 4.62174e-015
lhumerus -25.8223 6.00379 85.1069
lradius 26.1549
lwrist 8.31548
lhand -18.7404 17.1264
lfingers 7.12502
lthumb 7.55572 46.9715
rfemur -9.88571 -0.927622 19.7903
rtibia 30.9105
rfoot -23.6142 -9.77506
rtoes 19.47
lfemur -1.83725 1.34461 -16.2727
ltibia 15.1155
lfoot -10.6007 6.9165
ltoes -8.37683
4
root 49.661 16.8449 -8.4538 8.5641 -82.6905 -7.62254
lowerback -2.7048 -0.619305 -0.365283
upperback 4.9345 -0.913329 0.699366
thorax 6.66497 -0.51721 0.853112
lowerneck -11.217 -3.67065 -4.56434
upperneck 12.5348 -5.599 8.83981
head 6.02104 -2.32692 3.06374
rclavicle 9.97651e-015 -5.46658e-015
rhumerus -27.7227 -8.67826 -80.6137
rradius 27.2582
rwrist -0.88535
rhand -20.7312 5.46152
rfingers 7.12502
rthumb 5.6339 -24.4436
lclavicle 9.97651e-015 -5.46658e-015
lhumerus -25.8077 6.00897 85.1126
lradius 26.1601
lwrist 8.30364
lhand -18.7702 17.1571
lfingers 7.12502
lthumb 7.52697 47.0031
rfemur -9.82135 -0.539114 20.1722
rtibia 30.8353
rfoot -23.731 -10.1527
rtoes 19.2623
lfemur -1.88329 1.38504 -15.9315
ltibia 15.2401
lfoot -10.6428 6.90894
ltoes -8.48884
5
root 49.6571 16.8448 -8.45583 9.41222 -82.7048 -8.50144
lowerback -2.68771 -0.608862 -0.316856
upperback 4.95461 -0.905415 0.735902
thorax 6.6762 -0.512375 0.864785
lowerneck -11.2227 -3.66836 -4.56148
upperneck 12.5235 -5.59442 8.8358
head 6.01794 -2.32483 3.0623
rclavicle -1.01629e-014 6.48535e-015
rhumerus -27.7161 -8.68495 -80.6287
rradius 27.2712
rwrist -0.953696
rhand -20.6913 5.46446
rfingers 7.12502
rthumb 5.67236 -24.4396
lclavicle -1.01629e-014 6.48535e-015
lhumerus -25.7957 6.00745 85.123
lradius 26.1611
lwrist 8.30568
lhand -18.7843 17.1659
lfingers 7.12502
lthumb 7.51336 47.0125
rfemur -9.75516 -0.376734 20.322
rtibia 30.7672
rfoot -23.7607 -10.3482
rtoes 19.003
lfemur -1.91087 1.40171 -15.7975
ltibia 15.351
lfoot -10.7024 6.90795
ltoes -8.512
6
root 49.6524 16.8445 -8.45694 9.99932 -82.7148 -9.11887
lowerback -2.68435 -0.601197 -0.292164
upperback 4.981 -0.89926 0.761595
thorax 6.70231 -0.509368 0.878132
lowerneck -11.2388 -3.66504 -4.551
upperneck 12.5131 -5.5882 8.82414
head 6.01639 -2.32179 3.05719
rclavicle 8.4732e-015 3.67752e-015
rhumerus -27.7034 -8.69442 -80.6448
rradius 27.2828
rwrist -1.0208
rhand -20.6547 5.46647
rfingers 7.12502
rthumb 5.70771 -24.4367
lclavicle 8.4732e-015 3.67752e-015
lhumerus -25.7782 6.00581 85.1348
lradius 26.1633
lwrist 8.30849
lhand -18.7973 17.1797
lfingers 7.12502
lthumb 7.50077 47.0267
rfemur -9.67805 -0.259823 20.4258
rtibia 30.6934
rfoot -23.7722 -10.5282
rtoes 18.6619
lfemur -1.9326 1.41891 -15.704
ltibia 15.4622
lfoot -10.7652 6.89978
ltoes -8.54599
7
root 49.6474 16.8441 -8.45679 10.2756 -82.7216 -9.41716
lowerback -2.69287 -0.598553 -0.292989
upperback 5.0076 -0.897413 0.774185
thorax 6.7358 -0.509366 0.891633
lowerneck -11.2522 -3.66157 -4.54243
upperneck 12.497 -5.58146 8.815
head 6.01268 -2.31857 3.05327
rclavicle -1.43498e-015 2.78299e-015
rhumerus -27.6889 -8.69882 -80.6621
rradius 27.2944
rwrist -1.08533
rhand -20.6198 5.46703
rfingers 7.12502
rthumb 5.74147 -24.4352
lclavicle -1.43498e-015 2.78299e-015
lhumerus -25.76 6.00412 85.148
lradius 26.1673
lwrist 8.31787
lhand -18.8108 17.1934
lfingers 7.12502
lthumb 7.48773 47.0409
rfemur -9.62078 -0.197616 20.4735
rtibia 30.6556
rfoot -23.7797 -10.6642
rtoes 18.2933
lfemur -1.91262 1.43415 -15.6607
ltibia 15.4909
lfoot -10.793 6.8917
ltoes -8.58095
8
root 49.6429 16.8438 -8.4554 10.3106 -82.7289 -9.46044
lowerback -2.7103 -0.598826 -0.310804
upperback 5.02894 -0.897482 0.775623
thorax 6.76895 -0.510725 0.902807
lowerneck -11.2579 -3.65763 -4.53291
upperneck 12.4766 -5.57403 8.80532
head 6.00619 -2.3153 3.04917
rclavicle 7.70912e-015 -2.38542e-015
rhumerus -27.6802 -8.69916 -80.6784
rradius 27.3099
rwrist -1.14869
rhand -20.5798 5.46507
rfingers 7.12502
rthumb 5.78001 -24.4361
lclavicle 7.70912e-015 -2.38542e-015
lhumerus -25.7473 5.99879 85.163
lradius 26.1755
lwrist 8.33321
lhand -18.8212 17.2027
lfingers 7.12502
lthumb 7.47778 47.0506
rfemur -9.58384 -0.179909 20.4747
rtibia 30.6341
rfoot -23.7774 -10.745
rtoes 17.981
lfemur -1.88691 1.44286 -15.6596
ltibia 15.4892
lfoot -10.8089 6.88831
ltoes -8.59699
9
root 49.6392 16.8436 -8.45255 10.0503 -82.7371 -9.19155
lowerback -2.73499 -0.603203 -0.350093
upperback 5.04364 -0.90058 0.76389
thorax 6.79943 -0.514145 0.911978
lowerneck -11.2589 -3.65382 -4.5238
upperneck 12.455 -5.56668 8.79505
head 5.99852 -2.31229 3.04499
rclavicle -5.51006e-015 -7.45443e-017
rhumerus -27.6743 -8.69567 -80.693
rradius 27.326
rwrist -1.20697
rhand -20.5319 5.45798
rfingers 7.12502
rthumb 5.82629 -24.4419
lclavicle -5.51006e-015 -7.45443e-017
lhumerus -25.7415 5.99291 85.1797
lradius 26.1886
lwrist 8.35076
lhand -18.8282 17.2091
lfingers 7.12502
lthumb 7.47097 47.0572
rfemur -9.56944 -0.213888 20.4198
rtibia 30.6256
rfoot -23.7578 -10.7605
rtoes 17.7472
lfemur -1.86632 1.44492 -15.7098
ltibia 15.471
lfoot -10.8182 6.89136
ltoes -8.61453
10
root 49.6367 16.8436 -8.45013 10.0151 -82.7476 -9.14007
lowerback -2.74874 -0.605719 -0.366486
upperback 5.04703 -0.90279 0.760749
thorax 6.81127 -0.516032 0.917534
lowerneck -11.2418 -3.64889 -4.51913
upperneck 12.4312 -5.55821 8.78917
head 5.9872 -2.3092 3.04329
rclavicle 1.3682e-014 -2.73329e-016
rhumerus -27.6793 -8.69203 -80.7049
rradius 27.3422
rwrist -1.25876
rhand -20.4755 5.44727
rfingers 7.12502
rthumb 5.88075 -24.4511
lclavicle 1.3682e-014 -2.73329e-016
lhumerus -25.7501 5.98529 85.1962
lradius 26.2072
lwrist 8.36956
lhand -18.8323 17.2182
lfingers 7.12502
lthumb 7.46706 47.0664
rfemur -9.57615 -0.218871 20.4002
rtibia 30.623
rfoot -23.7489 -10.7676
rtoes 17.6361
lfemur -1.85968 1.44529 -15.7287
ltibia 15.4503
lfoot -10.8226 6.90335
ltoes -8.62001
